<?xml version="1.0"?>
<svg xmlns="http://www.w3.org/2000/svg" viewBox="0 0 64 64" width="512" height="512"><g id="transmission_tower-communication-signal-tower-transmission" data-name="transmission tower-communication-signal-tower-transmission"><path d="M47,5H39a1,1,0,0,0-1,1v8.59l-2-2V3a1,1,0,0,0-1-1H29a1,1,0,0,0-1,1v9.59l-2,2V6a1,1,0,0,0-1-1H17a1,1,0,0,0-1,1V30a1,1,0,0,0,1,1h8a1,1,0,0,0,1-1V19.41l2,2V56H19a1,1,0,0,0-1,1v4a1,1,0,0,0,1,1H45a1,1,0,0,0,1-1V57a1,1,0,0,0-1-1H36V21.41l2-2V30a1,1,0,0,0,1,1h8a1,1,0,0,0,1-1V6A1,1,0,0,0,47,5ZM24,29H18V7h6ZM34,4V6.59L31.41,4ZM30,5.41l4,4v3.18l-4-4Zm0,6,4,4v3.18l-4-4Zm0,6,4,4v3.18l-4-4Zm0,6,4,4v3.18l-4-4Zm0,6,4,4v3.18l-4-4Zm0,6,4,4v3.18l-4-4Zm0,6,4,4v3.18l-4-4Zm0,6,4,4v3.18l-4-4Zm0,6L32.59,56H30ZM26.41,17,28,15.41v3.18ZM44,58v2H20V58ZM36,18.59V15.41L37.59,17ZM46,29H40V7h6Z"/><path d="M2,18A12.013,12.013,0,0,0,14,30V28A10,10,0,0,1,14,8V6A12.013,12.013,0,0,0,2,18Z"/><path d="M6,18a8.009,8.009,0,0,0,8,8V24a6,6,0,0,1,0-12V10A8.009,8.009,0,0,0,6,18Z"/><path d="M10,18a4,4,0,0,0,4,4V20a2,2,0,0,1,0-4V14A4,4,0,0,0,10,18Z"/><path d="M50,6V8a10,10,0,0,1,0,20v2A12,12,0,0,0,50,6Z"/><path d="M58,18a8.009,8.009,0,0,0-8-8v2a6,6,0,0,1,0,12v2A8.009,8.009,0,0,0,58,18Z"/><path d="M54,18a4,4,0,0,0-4-4v2a2,2,0,0,1,0,4v2A4,4,0,0,0,54,18Z"/></g></svg>
